$MeshFormat
4.1 0 8
$EndMeshFormat
$PhysicalNames
5
1 1 "left"
1 2 "bottom"
1 3 "right"
1 4 "top"
2 5 "surface"
$EndPhysicalNames
$Entities
6 6 1 0
1 0 5 0 0 
2 0 0 0 0 
3 5 5 0 0 
4 5 0 0 0 
5 10 5 0 0 
6 10 0 0 0 
1 0 0 0 0 5 0 1 1 2 1 -2 
2 0 0 0 5 0 0 1 2 2 2 -4 
3 5 0 0 10 0 0 1 2 2 4 -6 
4 10 0 0 10 5 0 1 3 2 6 -5 
5 5 5 0 10 5 0 1 4 2 5 -3 
6 0 5 0 5 5 0 1 4 2 3 -1 
1 0 0 0 10 5 0 1 5 6 1 2 3 4 5 6 
$EndEntities
$Nodes
13 6 1 6
0 1 0 1
1
0 5 0
0 2 0 1
2
0 0 0
0 3 0 1
3
5 5 0
0 4 0 1
4
5 0 0
0 5 0 1
5
10 5 0
0 6 0 1
6
10 0 0
1 1 0 0
1 2 0 0
1 3 0 0
1 4 0 0
1 5 0 0
1 6 0 0
2 1 0 0
$EndNodes
$Elements
13 16 1 16
0 1 15 1
11 1 
0 2 15 1
12 2 
0 3 15 1
13 3 
0 4 15 1
14 4 
0 5 15 1
15 5 
0 6 15 1
16 6 
1 1 1 1
1 1 2 
1 2 1 1
2 2 4 
1 3 1 1
3 4 6 
1 4 1 1
4 6 5 
1 5 1 1
5 5 3 
1 6 1 1
6 3 1 
2 1 2 4
7 4 3 2 
8 5 3 4 
9 2 3 1 
10 5 4 6 
$EndElements
