$MeshFormat
4.1 0 8
$EndMeshFormat
$PhysicalNames
5
1 1 "B1"
1 2 "B2"
1 3 "B3"
1 4 "B4"
2 5 "surface"
$EndPhysicalNames
$Entities
4 4 1 0
1 0 0 0 0 
2 2 0 0 0 
3 2 1 0 0 
4 0 1 0 0 
1 0 0 0 2 0 0 1 1 2 1 -2 
2 2 0 0 2 1 0 1 2 2 2 -3 
3 0 1 0 2 1 0 1 3 2 3 -4 
4 0 0 0 0 1 0 1 4 2 4 -1 
1 0 0 0 2 1 0 1 5 4 1 2 3 4 
$EndEntities
$Nodes
9 274 1 274
0 1 0 1
1
0 0 0
0 2 0 1
2
2 0 0
0 3 0 1
3
2 1 0
0 4 0 1
4
0 1 0
1 1 0 19
5
6
7
8
9
10
11
12
13
14
15
16
17
18
19
20
21
22
23
0.09999999999979935 0 0
0.1999999999996294 0 0
0.2999999999994072 0 0
0.3999999999991158 0 0
0.4999999999988243 0 0
0.5999999999985328 0 0
0.6999999999982414 0 0
0.7999999999979499 0 0
0.8999999999976585 0 0
0.9999999999973885 0 0
1.09999999999763 0 0
1.199999999997894 0 0
1.299999999998157 0 0
1.39999999999842 0 0
1.499999999998683 0 0
1.599999999998947 0 0
1.69999999999921 0 0
1.799999999999474 0 0
1.899999999999737 0 0
1 2 0 9
24
25
26
27
28
29
30
31
32
2 0.09999999999981468 0
2 0.1999999999995579 0
2 0.2999999999992664 0
2 0.399999999998975 0
2 0.4999999999986943 0
2 0.5999999999989468 0
2 0.69999999999921 0
2 0.7999999999994734 0
2 0.8999999999997368 0
1 3 0 19
33
34
35
36
37
38
39
40
41
42
43
44
45
46
47
48
49
50
51
1.899999999999584 1 0
1.799999999999167 1 0
1.699999999999306 1 0
1.6 1 0
1.500000000000693 1 0
1.400000000001387 1 0
1.30000000000208 1 0
1.200000000002774 1 0
1.100000000003467 1 0
1.000000000004117 1 0
0.9000000000037447 1 0
0.8000000000033287 1 0
0.7000000000029127 1 0
0.6000000000024965 1 0
0.5000000000020806 1 0
0.4000000000016644 1 0
0.3000000000012482 1 0
0.200000000000832 1 0
0.100000000000416 1 0
1 4 0 9
52
53
54
55
56
57
58
59
60
0 0.8999999999995836 0
0 0.7999999999999998 0
0 0.7000000000006934 0
0 0.6000000000013869 0
0 0.5000000000020587 0
0 0.4000000000016644 0
0 0.3000000000012483 0
0 0.2000000000008322 0
0 0.100000000000416 0
2 1 0 214
61
62
63
64
65
66
67
68
69
70
71
72
73
74
75
76
77
78
79
80
81
82
83
84
85
86
87
88
89
90
91
92
93
94
95
96
97
98
99
100
101
102
103
104
105
106
107
108
109
110
111
112
113
114
115
116
117
118
119
120
121
122
123
124
125
126
127
128
129
130
131
132
133
134
135
136
137
138
139
140
141
142
143
144
145
146
147
148
149
150
151
152
153
154
155
156
157
158
159
160
161
162
163
164
165
166
167
168
169
170
171
172
173
174
175
176
177
178
179
180
181
182
183
184
185
186
187
188
189
190
191
192
193
194
195
196
197
198
199
200
201
202
203
204
205
206
207
208
209
210
211
212
213
214
215
216
217
218
219
220
221
222
223
224
225
226
227
228
229
230
231
232
233
234
235
236
237
238
239
240
241
242
243
244
245
246
247
248
249
250
251
252
253
254
255
256
257
258
259
260
261
262
263
264
265
266
267
268
269
270
271
272
273
274
1.450642866638479 0.9154640981954273 0
1.152469636478225 0.9218042961029769 0
0.5493571333614374 0.08453590180481088 0
0.8482359739443546 0.07826250928771276 0
1.349999999997825 0.08660254037915195 0
0.6500000000035231 0.913397459620355 0
0.08477828132214672 0.5468402906295525 0
1.915221718678032 0.453159709370608 0
0.3500000000024385 0.9133974596203969 0
1.649999999998482 0.08660254037914196 0
0.08660254037876891 0.3500000000013018 0
1.928023699626284 0.6514531206225209 0
0.8500000000038159 0.9133974596212943 0
1.149999999997617 0.08660254037862193 0
0.3442582315916958 0.09682240193709919 0
1.649999999999653 0.913397459622157 0
0.08962961249639673 0.7586725654697496 0
1.910370387503921 0.2413274345296409 0
1.849539991207994 0.9228519491130337 0
0.08436963044178998 0.1538675134601669 0
0.1504237369288745 0.9153227954938754 0
1.849576263071417 0.08467720450589152 0
0.9500000000039311 0.9133974596216763 0
0.8975303635278018 0.8282207645274928 0
0.7995883939248142 0.8270325601232018 0
0.8470501564356787 0.7418954718430293 0
0.7494397583967208 0.7405158345069616 0
0.7994149858091305 0.653927596589353 0
0.8969412205664901 0.6618942397078349 0
0.6998091240380614 0.6537000407761769 0
0.7498706849786902 0.5670619581728409 0
0.6499466348403212 0.5670181084991861 0
0.6999695533077483 0.480402336138108 0
0.5999860313626337 0.4803928225281215 0
0.5499887777045753 0.5669937773045697 0
0.4999958015158964 0.480387181726905 0
0.7999733730520473 0.4804001308082304 0
0.4499974298742258 0.5669887819715086 0
0.399998871903101 0.4803854090374279 0
0.6499925974500331 0.3937864912179686 0
0.4499991122416705 0.3937827299001586 0
0.4999977012667524 0.6535911656612687 0
0.399999788771307 0.653589960439397 0
0.3518770766994598 0.3926984866143576 0
0.400312698162439 0.3069991406060791 0
0.3000000000081872 0.3071796769690126 0
0.3073689354417369 0.4747978740317119 0
0.449999581676319 0.7401926203841122 0
0.3499998950779432 0.7401924394411388 0
0.5000519684060549 0.3071496730016843 0
0.9971187574481704 0.8317276124540769 0
0.2999999473122577 0.6535898689051878 0
0.6498748137423584 0.7402646551854147 0
0.4500000000085981 0.2205771365916535 0
0.2529006088289782 0.7385177115754447 0
0.2031944055855923 0.6533801510835966 0
0.5500000000084413 0.2205771365923074 0
0.3999999127949568 0.8267949695909202 0
0.4999999157480827 0.8267949678860088 0
0.449999971425446 0.9133974761193745 0
0.3004834027848949 0.8265158265145579 0
0.1849446422338347 0.8182381188933446 0
0.7499313989904348 0.9134370664344371 0
1.05246963647408 0.08517669509394055 0
1.102881242553367 0.171541594591723 0
1.200480207090095 0.1729278330630928 0
1.150560241605252 0.259484165492345 0
1.250173408113951 0.2597075039130242 0
1.200122274951026 0.3463395660364996 0
1.300049280508658 0.3463817093977757 0
1.250028592574258 0.4329961939603404 0
1.350012978844735 0.4330052085515713 0
1.300006928567272 0.5196112420589334 0
1.40000331789935 0.5196133266792888 0
1.450002716121612 0.4330111337378096 0
1.50000100566742 0.5196146616472973 0
1.550000620295692 0.433012343763747 0
1.600000270991014 0.5196150858131984 0
1.150025144585328 0.4329981846574056 0
1.055512853646001 0.2500863595081398 0
1.350001707741695 0.6062167966823022 0
1.250001439382268 0.6062169516194222 0
1.550000212773412 0.6062176598031562 0
1.5000005560674 0.3464098404676637 0
1.600000051032983 0.3464101320496978 0
1.30000013653313 0.6928202441979053 0
1.654331874335059 0.6037167738347918 0
1.202469899126295 0.6913943260997308 0
1.600722014514799 0.692403467751681 0
1.705174108515632 0.6898330500821361 0
1.702478039824943 0.518004707550196 0
1.550000101181397 0.259807562718127 0
1.650000025367038 0.2598076064898037 0
1.500120371211725 0.6927508266744609 0
1.150411889749107 0.6059799779894568 0
1.700000012730909 0.346410154163713 0
1.350037114768516 0.2597861929130593 0
1.54999999999506 0.7794228634069514 0
1.251392895029948 0.7786186750827395 0
1.350232171924074 0.7759945512044412 0
1.102949934621104 0.6878479704336847 0
1.05302994053745 0.5973851637321018 0
1.747099371253426 0.2614822999235052 0
1.796805584435846 0.3466198546772037 0
1.305210117443238 0.8522431588487243 0
0.9992774099152262 0.6846660352190032 0
1.600000021089812 0.1732050685806764 0
1.500000020376785 0.1732050689923165 0
1.450015294974492 0.7775625857062513 0
1.550000006910091 0.08660253638870115 0
1.699516569617606 0.1734841894185785 0
1.815055350978545 0.1817618850252113 0
1.250080034513177 0.08655633242975461 0
0.0862303887225413 0.2506445855775937 0
0.1714066072601002 0.198388985539634 0
0.1626841342278524 0.09177841112379373 0
0.2598076211358959 0.1500000000008219 0
0.1900472764144703 0.3041876759100505 0
0.1714658503274893 0.4076527380406999 0
0.08600862546433563 0.450748838112741 0
0.1642642452575275 0.5012868319838493 0
0.2476419636586871 0.912245700087029 0
1.400061613730156 0.6919271311859057 0
0.2454514640040196 0.5550762644464211 0
1.649999999994724 0.7794228634073157 0
1.749999999994474 0.77942286340777 0
1.799999999994863 0.6928203230297736 0
1.845195073579618 0.7712286786148257 0
1.749980042655237 0.9155096426542692 0
0.6000074276479636 0.3071753886209084 0
0.6500012379482647 0.223870689544468 0
0.7000002105114633 0.3077286000498739 0
0.7475306049387794 0.2226433945497748 0
0.7995884692465323 0.3076155404779439 0
0.8470502092244671 0.2256892091667888 0
0.9019094162247031 0.3132169017913903 0
0.6946493675315373 0.1479447262151896 0
0.9520716786252772 0.2279644415168381 0
1.920591751316827 0.5507688049980488 0
1.822218988001545 0.5093023127290252 0
0.3504694062177747 0.5640713598052757 0
1.049931398990255 0.9156207145704094 0
1.104859238438043 0.8428830613403209 0
1.752358030610789 0.08775430322147054 0
0.850245209757202 0.3948636275848221 0
0.9537845552038662 0.406603639406159 0
0.952587238211301 0.08027984198561994 0
1.75078597776775 0.4308215263738157 0
1.761915596482033 0.5991173796395781 0
0.5500054897707086 0.3937790478326244 0
1.103506388940055 0.3432960112321665 0
1.056158621072929 0.4252380563227372 0
0.3437143418073613 0.2101414298261571 0
1.450031371503959 0.606056733778735 0
1.650388687218334 0.4325600516976576 0
0.849366710736383 0.5684426635193855 0
0.9522388501029018 0.5839721717452805 0
0.4499999999989701 0.08660254037819125 0
1.200078999142486 0.5195696320927011 0
1.550000000000346 0.9133974596221585 0
1.300128460746806 0.1731309139093724 0
1.898962050518658 0.3471315672368653 0
1.400017107717987 0.3464002843674452 0
0.5999361752661881 0.6536266877148265 0
0.1010379480560129 0.6528684335858556 0
0.9034044196180023 0.4908904006045784 0
0.6998057275103926 0.8269070825185487 0
0.7499615688875043 0.3941327877128245 0
1.104087068990486 0.5153718642263325 0
1.450009150018226 0.2598023383694606 0
0.5499680312840343 0.7402108360120924 0
1.400029124317666 0.1731882658239055 0
0.5999701095508327 0.8268121765024711 0
1.450004858599911 0.0865997352640125 0
0.5499949994554102 0.9134003466880347 0
0.08324455358107413 0.8508641968735574 0
1.916755445610945 0.1491358035926693 0
1.911051758681385 0.8467137615084068 0
0.2612644760286499 0.3872786690841638 0
0.252995169325203 0.2339795536491353 0
1.930447650359719 0.7499999999993417 0
0.6490010834827711 0.07550962743646827 0
1.350975497347097 0.9245216867410717 0
1.207656246606481 0.8520843863969527 0
1.156534640366147 0.7693712786391849 0
0.9417149040220361 0.7500847840291303 0
1.003783909254272 0.5032435493395315 0
1.003823918952139 0.3277342349629051 0
1.010360562805191 0.163480106041908 0
0.7979110259391342 0.1491611020045443 0
0.2500000000006204 0.06698729810863624 0
1.500000000000695 0.8464101615165274 0
1.599999999997462 0.846410161514668 0
1.699999999994295 0.8464101615128975 0
1.050000000004005 0.7598076211381924 0
1.800961144352167 0.847022842801867 0
0.9013694481249541 0.1541395350005687 0
0.4999999999988242 0.1535898384813293 0
0.4064119951456078 0.1535741063242862 0
0.748299575148998 0.07514632749065246 0
1.252718582979982 0.9251089213482875 0
1.399999999994971 0.8462597977271247 0
0.6000000000087823 0.1537402022734511 0
0.166341443440163 0.7243353961215981 0
1.833658548938079 0.2756646082784853 0
0.1622595264183319 0.5810417437701767 0
1.837397321358162 0.4183929274568104 0
1.850589492140797 0.6186967774597748 0
0.0732050807571919 0.9267949192428079 0
0.07320508075713184 0.07320508075729708 0
1.926794919242843 0.07320508075703691 0
1.927304073544278 0.9273040735443204 0
0.2302801924388724 0.4621417920112723 0
1.87083282150682 0.7002337638865203 0
$EndNodes
$Elements
9 550 1 550
0 1 15 1
547 1 
0 2 15 1
548 2 
0 3 15 1
549 3 
0 4 15 1
550 4 
1 1 1 20
1 1 5 
2 5 6 
3 6 7 
4 7 8 
5 8 9 
6 9 10 
7 10 11 
8 11 12 
9 12 13 
10 13 14 
11 14 15 
12 15 16 
13 16 17 
14 17 18 
15 18 19 
16 19 20 
17 20 21 
18 21 22 
19 22 23 
20 23 2 
1 2 1 10
21 2 24 
22 24 25 
23 25 26 
24 26 27 
25 27 28 
26 28 29 
27 29 30 
28 30 31 
29 31 32 
30 32 3 
1 3 1 20
31 3 33 
32 33 34 
33 34 35 
34 35 36 
35 36 37 
36 37 38 
37 38 39 
38 39 40 
39 40 41 
40 41 42 
41 42 43 
42 43 44 
43 44 45 
44 45 46 
45 46 47 
46 47 48 
47 48 49 
48 49 50 
49 50 51 
50 51 4 
1 4 1 10
51 4 52 
52 52 53 
53 53 54 
54 54 55 
55 55 56 
56 56 57 
57 57 58 
58 58 59 
59 59 60 
60 60 1 
2 1 2 486
61 177 75 213 
62 213 75 259 
63 77 122 236 
64 78 172 237 
65 226 206 247 
66 196 198 248 
67 150 147 209 
68 122 77 264 
69 172 78 265 
70 166 89 217 
71 162 166 217 
72 178 106 239 
73 206 212 247 
74 198 140 248 
75 151 200 209 
76 200 151 208 
77 147 151 209 
78 187 150 209 
79 5 6 176 
80 106 178 240 
81 179 178 239 
82 5 176 270 
83 122 81 236 
84 172 82 237 
85 225 116 264 
86 222 164 265 
87 188 238 256 
88 62 203 244 
89 244 203 245 
90 217 226 247 
91 206 196 248 
92 238 79 256 
93 207 249 257 
94 111 246 255 
95 161 245 255 
96 195 250 257 
97 243 39 261 
98 242 11 260 
99 177 213 240 
100 116 225 266 
101 164 222 267 
102 77 225 264 
103 78 222 265 
104 184 181 273 
105 75 177 251 
106 107 184 273 
107 165 243 261 
108 197 242 260 
109 249 198 257 
110 246 166 255 
111 245 203 255 
112 250 64 257 
113 81 122 182 
114 69 118 120 
115 122 121 182 
116 48 69 120 
117 118 69 121 
118 82 172 204 
119 47 48 120 
120 121 69 182 
121 46 47 235 
122 70 167 170 
123 20 70 170 
124 172 171 204 
125 167 70 171 
126 67 180 181 
127 19 20 170 
128 18 19 234 
129 47 120 235 
130 171 70 204 
131 56 57 180 
132 115 109 121 
133 109 118 121 
134 67 56 180 
135 123 66 227 
136 45 66 123 
137 19 170 234 
138 227 66 233 
139 44 45 123 
140 163 153 171 
141 115 121 122 
142 173 65 221 
143 153 167 171 
144 34 35 189 
145 146 141 183 
146 17 65 173 
147 42 43 83 
148 35 76 189 
149 169 160 183 
150 83 73 84 
151 16 17 173 
152 28 29 199 
153 221 65 232 
154 68 28 199 
155 71 58 174 
156 57 71 180 
157 43 73 83 
158 160 146 183 
159 183 141 214 
160 71 174 178 
161 73 44 123 
162 50 81 182 
163 33 34 79 
164 41 42 202 
165 163 171 172 
166 174 175 178 
167 62 41 202 
168 97 93 228 
169 42 83 202 
170 43 44 73 
171 180 179 181 
172 205 206 226 
173 14 15 124 
174 68 199 200 
175 79 34 189 
176 62 202 203 
177 83 84 111 
178 124 74 125 
179 66 46 235 
180 15 74 124 
181 71 179 180 
182 57 58 71 
183 74 16 173 
184 29 72 199 
185 59 80 174 
186 100 190 192 
187 174 80 175 
188 71 178 179 
189 22 82 204 
190 184 107 201 
191 65 18 234 
192 50 51 81 
193 97 205 226 
194 175 176 177 
195 190 100 210 
196 69 49 182 
197 205 97 228 
198 175 80 176 
199 141 134 214 
200 13 14 207 
201 112 115 116 
202 98 103 201 
203 15 16 74 
204 29 30 72 
205 143 154 214 
206 154 183 214 
207 14 124 207 
208 154 149 158 
209 99 98 201 
210 64 13 207 
211 208 151 215 
212 58 59 174 
213 59 60 80 
214 103 112 201 
215 148 146 159 
216 159 160 165 
217 143 149 154 
218 154 158 169 
219 159 146 160 
220 48 49 69 
221 142 141 146 
222 49 50 182 
223 133 134 141 
224 143 147 149 
225 112 109 115 
226 211 139 212 
227 22 23 82 
228 107 99 201 
229 70 21 204 
230 156 208 215 
231 129 130 131 
232 112 116 184 
233 103 109 112 
234 93 100 228 
235 131 132 133 
236 129 139 211 
237 100 94 210 
238 149 150 185 
239 133 141 142 
240 156 163 164 
241 94 96 210 
242 110 190 210 
243 101 110 210 
244 158 149 185 
245 104 99 107 
246 88 87 90 
247 127 129 211 
248 20 21 70 
249 21 22 204 
250 86 87 88 
251 156 164 208 
252 133 132 134 
253 142 146 148 
254 88 90 91 
255 17 18 65 
256 131 130 132 
257 136 138 143 
258 101 105 110 
259 129 128 130 
260 112 184 201 
261 110 114 117 
262 110 105 114 
263 136 143 214 
264 140 127 211 
265 127 128 129 
266 45 46 66 
267 129 131 139 
268 134 136 214 
269 133 142 219 
270 96 101 210 
271 193 191 197 
272 125 127 140 
273 149 147 150 
274 143 138 147 
275 212 139 229 
276 139 131 219 
277 145 153 156 
278 156 153 163 
279 96 95 98 
280 190 117 191 
281 110 117 190 
282 101 104 105 
283 125 74 126 
284 93 94 100 
285 84 73 85 
286 154 169 183 
287 91 90 92 
288 202 111 203 
289 86 88 89 
290 145 156 215 
291 83 111 202 
292 84 85 86 
293 96 98 99 
294 142 155 219 
295 192 191 193 
296 100 192 228 
297 86 85 87 
298 185 150 186 
299 125 126 127 
300 127 126 128 
301 89 216 217 
302 91 93 97 
303 91 92 93 
304 190 191 192 
305 93 92 94 
306 151 138 215 
307 134 135 136 
308 131 133 219 
309 98 102 103 
310 130 128 157 
311 138 137 215 
312 147 138 151 
313 96 99 101 
314 136 135 137 
315 136 137 138 
316 194 193 195 
317 137 145 215 
318 101 99 104 
319 134 132 135 
320 192 193 194 
321 114 105 213 
322 105 104 106 
323 155 148 161 
324 90 87 113 
325 98 95 102 
326 105 106 213 
327 128 126 221 
328 219 155 229 
329 91 97 216 
330 205 196 206 
331 27 28 68 
332 89 88 216 
333 88 91 216 
334 103 108 109 
335 137 144 145 
336 12 13 64 
337 9 10 63 
338 94 95 96 
339 194 196 205 
340 130 157 223 
341 137 135 144 
342 162 161 166 
343 8 9 218 
344 94 92 95 
345 7 8 75 
346 145 152 153 
347 196 195 198 
348 37 38 61 
349 40 41 62 
350 194 195 196 
351 126 74 173 
352 157 128 221 
353 26 27 222 
354 142 148 155 
355 90 113 224 
356 92 90 224 
357 25 26 78 
358 36 37 220 
359 155 162 229 
360 87 85 227 
361 55 56 67 
362 126 173 221 
363 192 194 228 
364 9 63 218 
365 155 161 162 
366 145 144 152 
367 167 152 168 
368 132 130 223 
369 35 36 76 
370 27 68 222 
371 135 132 223 
372 75 8 218 
373 153 152 167 
374 139 219 229 
375 217 216 226 
376 167 168 170 
377 144 135 223 
378 103 102 108 
379 194 205 228 
380 54 55 225 
381 216 97 226 
382 95 92 224 
383 186 150 187 
384 37 61 220 
385 113 87 227 
386 78 26 222 
387 186 187 188 
388 109 108 118 
389 102 95 224 
390 53 54 77 
391 224 113 231 
392 118 108 119 
393 118 119 120 
394 85 73 123 
395 76 36 220 
396 223 157 230 
397 102 224 231 
398 168 152 230 
399 144 223 230 
400 55 67 225 
401 85 123 227 
402 152 144 230 
403 119 108 231 
404 168 230 232 
405 77 54 225 
406 230 157 232 
407 108 102 231 
408 232 65 234 
409 157 221 232 
410 231 113 233 
411 233 66 235 
412 113 227 233 
413 119 231 233 
414 168 232 234 
415 170 168 234 
416 119 233 235 
417 120 119 235 
418 187 268 274 
419 89 166 246 
420 162 217 247 
421 212 206 248 
422 140 198 249 
423 187 209 268 
424 52 53 236 
425 24 25 237 
426 209 200 268 
427 104 107 239 
428 53 77 236 
429 25 78 237 
430 178 175 240 
431 72 30 241 
432 31 32 238 
433 10 11 242 
434 38 39 243 
435 161 148 245 
436 86 89 246 
437 111 84 246 
438 211 212 248 
439 229 162 247 
440 125 140 249 
441 207 124 249 
442 195 193 250 
443 7 75 251 
444 12 64 260 
445 40 62 261 
446 165 160 262 
447 197 191 263 
448 115 122 264 
449 163 172 265 
450 225 67 266 
451 222 68 267 
452 213 106 240 
453 238 188 241 
454 268 72 274 
455 200 199 268 
456 4 52 269 
457 60 1 270 
458 1 5 270 
459 2 24 271 
460 23 2 271 
461 176 80 270 
462 51 4 269 
463 3 33 272 
464 32 3 272 
465 31 238 241 
466 106 104 239 
467 176 6 251 
468 181 184 266 
469 200 208 267 
470 243 165 262 
471 242 197 263 
472 62 244 261 
473 64 250 260 
474 175 177 240 
475 30 31 241 
476 63 10 242 
477 61 38 243 
478 159 165 244 
479 159 244 245 
480 148 159 245 
481 84 86 246 
482 212 229 247 
483 140 211 248 
484 124 125 249 
485 193 197 250 
486 184 116 266 
487 208 164 267 
488 258 63 263 
489 252 61 262 
490 198 195 257 
491 166 161 255 
492 117 114 258 
493 258 114 259 
494 114 213 259 
495 169 158 252 
496 158 185 253 
497 189 76 254 
498 252 158 253 
499 79 189 256 
500 189 254 256 
501 6 7 251 
502 177 176 251 
503 220 61 252 
504 76 220 253 
505 220 252 253 
506 185 186 254 
507 203 111 255 
508 254 186 256 
509 186 188 256 
510 64 207 257 
511 218 63 258 
512 218 258 259 
513 75 218 259 
514 76 253 254 
515 253 185 254 
516 117 258 263 
517 169 252 262 
518 11 12 260 
519 39 40 261 
520 160 169 262 
521 191 117 263 
522 116 115 264 
523 164 163 265 
524 67 181 266 
525 68 200 267 
526 24 237 271 
527 52 236 269 
528 33 79 272 
529 199 72 268 
530 81 51 269 
531 80 60 270 
532 82 23 271 
533 72 241 274 
534 181 179 273 
535 239 107 273 
536 188 187 274 
537 236 81 269 
538 237 82 271 
539 79 238 272 
540 238 32 272 
541 63 242 263 
542 61 243 262 
543 244 165 261 
544 250 197 260 
545 179 239 273 
546 241 188 274 
$EndElements
